PathFileType	4	(X/Y/Z)	/Users/itak/Documents/Research/Walk-IL/dataset/trc/00103_00007.trc
DataRate	CameraRate	NumFrames	NumMarkers	Units	OrigDataRate	OrigDataStartFrame	OrigNumFrames
100.000000	100.000000	4	53	mm	100.000000	351	563
Frame#	Time	RPSI			LPSI			L3			STRN			T10			C7			CLAV			RBAK			LBAK			LSHO			LUPA			LAEL			LAOL			LWTS			LWPS			LFRA			LIFD			LHPS			LHTS			RSHO			RUPA			RAEL			RAOL			RWTS			RWPS			RFRA			RIFD			RHTS			RHPS			RBHD			LFHD			RFHD			LBHD			LHIP			RHIP			RASI			LASI			LKNE			LTHI			LANK			LTIP			LTOE			LMT1			LMT5			LHEE			RKNE			RTHI			RANK			RTIP			RTOE			RMT1			RMT5			RHEE			
		X1	Y1	Z1	X2	Y2	Z2	X3	Y3	Z3	X4	Y4	Z4	X5	Y5	Z5	X6	Y6	Z6	X7	Y7	Z7	X8	Y8	Z8	X9	Y9	Z9	X10	Y10	Z10	X11	Y11	Z11	X12	Y12	Z12	X13	Y13	Z13	X14	Y14	Z14	X15	Y15	Z15	X16	Y16	Z16	X17	Y17	Z17	X18	Y18	Z18	X19	Y19	Z19	X20	Y20	Z20	X21	Y21	Z21	X22	Y22	Z22	X23	Y23	Z23	X24	Y24	Z24	X25	Y25	Z25	X26	Y26	Z26	X27	Y27	Z27	X28	Y28	Z28	X29	Y29	Z29	X30	Y30	Z30	X31	Y31	Z31	X32	Y32	Z32	X33	Y33	Z33	X34	Y34	Z34	X35	Y35	Z35	X36	Y36	Z36	X37	Y37	Z37	X38	Y38	Z38	X39	Y39	Z39	X40	Y40	Z40	X41	Y41	Z41	X42	Y42	Z42	X43	Y43	Z43	X44	Y44	Z44	X45	Y45	Z45	X46	Y46	Z46	X47	Y47	Z47	X48	Y48	Z48	X49	Y49	Z49	X50	Y50	Z50	X51	Y51	Z51	X52	Y52	Z52	X53	Y53	Z53	

352	3.51	-518.8182983398438	1098.419921875	-290.0003967285156	-510.0776672363281	1103.376220703125	-424.7612609863281	-524.1084594726562	1137.314819335938	-357.8050231933594	-306.7545776367188	1337.876342773438	-345.4327087402344	-552.2384643554688	1286.284057617188	-345.1657104492188	-521.7181396484375	1578.969604492188	-367.9825134277344	-342.1705932617188	1472.461059570312	-356.9552917480469	-577.8208618164062	1398.52490234375	-273.4170227050781	-530.4541625976562	1555.426879882812	-467.3498840332031	-446.8186340332031	1538.397094726562	-538.9607543945312	-485.4195251464844	1406.307983398438	-599.9507446289062	-516.64111328125	1191.079711914062	-609.8181762695312	-570.8436279296875	1192.622314453125	-541.267578125	-478.3218994140625	915.3224487304688	-574.1250610351562	-568.3575439453125	913.2579956054688	-585.6509399414062	-528.4090576171875	1074.50830078125	-611.8677368164062	-521.8284301757812	727.0448608398438	-536.2449340820312	-562.795166015625	832.6243286132812	-585.69677734375	-493.4905395507812	824.8822021484375	-577.5863647460938	-466.7038269042969	1567.651123046875	-186.2826995849609	-477.3690185546875	1494.948120117188	-120.0253524780273	-445.8256225585938	1203.3232421875	-73.95042419433594	-458.3687744140625	1192.260009765625	-169.4092254638672	-243.1543426513672	1008.645751953125	-83.90901947021484	-307.2457885742188	972.5822143554688	-46.03135681152344	-403.5527648925781	1138.157348632812	-55.50219345092773	-163.1591491699219	828.9715576171875	-90.46626281738281	-183.0558624267578	914.2280883789062	-73.97905731201172	-242.8309020996094	889.1105346679688	-38.33091735839844	-487.6087951660156	1751.531127929688	-297.1687927246094	-331.9462585449219	1818.265869140625	-437.2832946777344	-328.1060485839844	1831.108032226562	-308.9679565429688	-498.6330871582031	1742.713012695312	-432.3489990234375	-399.817626953125	1023.266723632812	-529.7962646484375	-406.5207214355469	1000.850341796875	-161.8494567871094	-319.694091796875	1075.763061523438	-203.6862182617188	-305.8859252929688	1087.042724609375	-469.2849426269531	-231.4018402099609	543.9590454101562	-488.1521301269531	-300.2384643554688	675.08837890625	-522.785888671875	-199.0535125732422	29.36178207397461	-475.8144836425781	-257.7604370117188	280.1121520996094	-511.1115417480469	25.60598373413086	66.38813781738281	-425.6955871582031	-50.35882568359375	58.90386199951172	-388.3788146972656	-78.12464141845703	39.15526580810547	-500.0269470214844	-265.9576110839844	29.82191467285156	-412.1377563476562	-461.6571960449219	508.8826293945312	-218.5695648193359	-402.2958984375	786.772216796875	-180.7309112548828	-770.2976684570312	75.61825561523438	-243.8531188964844	-541.8642578125	390.2676391601562	-209.6066741943359	-544.7119140625	37.6076545715332	-298.669189453125	-606.287109375	38.30145645141602	-337.3099670410156	-642.0278930664062	41.42008209228516	-221.3733978271484	-823.8052368164062	103.1120681762695	-291.5851440429688	
353	3.52	-508.2622680664062	1099.1689453125	-291.273193359375	-499.5010986328125	1104.843383789062	-426.047607421875	-513.5044555664062	1138.384399414062	-359.1192932128906	-296.6931762695312	1339.32421875	-346.7500305175781	-542.0692749023438	1287.196655273438	-346.5687866210938	-512.2084350585938	1579.825561523438	-369.6135864257812	-332.4723205566406	1473.8173828125	-358.2515563964844	-567.756591796875	1399.300170898438	-275.0064086914062	-520.7904052734375	1556.372802734375	-468.9984130859375	-436.9920043945312	1539.604614257812	-540.4285888671875	-474.97607421875	1407.4560546875	-601.6096801757812	-505.2081909179688	1192.028198242188	-611.6275024414062	-559.5005493164062	1193.274047851562	-543.2120361328125	-465.559814453125	916.3817138671875	-575.956298828125	-555.3435668945312	913.9011840820312	-587.7689208984375	-516.321044921875	1075.430541992188	-613.8141479492188	-507.8150024414062	727.9313354492188	-538.5227661132812	-549.2674560546875	833.2973022460938	-587.8936767578125	-479.9856262207031	825.6918334960938	-579.8580932617188	-457.5871276855469	1568.889038085938	-187.8678436279297	-468.5357666015625	1496.207885742188	-121.6345825195312	-439.3209228515625	1204.381103515625	-76.44135284423828	-450.9172973632812	1193.730346679688	-171.9861907958984	-239.7514801025391	1006.387084960938	-85.20821380615234	-304.5511779785156	971.5662231445312	-47.92382431030273	-398.0519104003906	1138.690185546875	-57.80158996582031	-162.5101013183594	825.6511840820312	-91.26710510253906	-181.1368408203125	911.1603393554688	-74.83058929443359	-241.5599365234375	887.0055541992188	-39.79393005371094	-478.6148681640625	1752.779296875	-298.8897705078125	-322.7756652832031	1819.636596679688	-438.7088317871094	-319.1905822753906	1832.440551757812	-310.4153747558594	-489.3849792480469	1743.969116210938	-434.09423828125	-389.2778015136719	1025.392456054688	-531.5466918945312	-395.4793395996094	1001.114318847656	-163.74658203125	-309.1692504882812	1076.605590820312	-205.5346374511719	-295.4732971191406	1088.693481445312	-471.0709533691406	-223.7032928466797	544.5637817382812	-488.7178344726562	-291.2633361816406	676.3661499023438	-523.705322265625	-198.4078826904297	29.24751281738281	-476.0782775878906	-252.36572265625	280.6359252929688	-512.3207397460938	27.25033569335938	61.73253631591797	-424.2870178222656	-49.4621467590332	55.87765502929688	-387.4481811523438	-76.94039154052734	37.86312484741211	-499.60400390625	-265.5298461914062	30.70053482055664	-412.7066650390625	-447.0950317382812	508.3787841796875	-219.4674682617188	-389.8507995605469	786.9182739257812	-182.6610412597656	-767.015625	82.04782867431641	-242.7396240234375	-530.0678100585938	391.583251953125	-209.8306579589844	-544.632568359375	37.50808715820312	-298.5876770019531	-605.6324462890625	39.23329162597656	-337.374755859375	-640.5496826171875	42.05123519897461	-221.5276641845703	-819.08544921875	112.0616302490234	-290.3584899902344	
354	3.53	-497.7955932617188	1099.990478515625	-292.5596008300781	-489.033447265625	1106.346557617188	-427.3377685546875	-503.0509033203125	1139.52392578125	-360.4391479492188	-286.672119140625	1340.8388671875	-348.0828552246094	-531.91943359375	1288.18603515625	-347.9599304199219	-502.7521362304688	1580.794677734375	-371.2240295410156	-322.7778930664062	1475.255249023438	-359.5321655273438	-557.6641845703125	1400.15771484375	-276.5327758789062	-511.1408386230469	1557.402954101562	-470.60791015625	-427.1485900878906	1540.94140625	-541.8416748046875	-464.4393615722656	1408.746459960938	-603.286376953125	-493.5469970703125	1193.09619140625	-613.5183715820312	-547.9798583984375	1194.003295898438	-545.2797241210938	-452.4245910644531	917.5709228515625	-577.8153076171875	-541.841796875	914.6217651367188	-590.0428466796875	-503.9049987792969	1076.465698242188	-615.8651733398438	-493.1797790527344	728.936767578125	-540.9642333984375	-535.1676635742188	834.0631713867188	-590.24267578125	-465.9130859375	826.6309204101562	-582.2821655273438	-448.4451599121094	1570.22509765625	-189.4365081787109	-459.6759948730469	1497.604125976562	-123.200439453125	-432.9246826171875	1205.587890625	-78.90296173095703	-443.6186828613281	1195.367431640625	-174.5458984375	-236.6340942382812	1004.180908203125	-86.50862121582031	-302.2062683105469	970.6394653320312	-49.83188247680664	-392.7353515625	1139.36279296875	-60.09449768066406	-162.4612121582031	822.2644653320312	-92.16065216064453	-179.6864013671875	908.0276489257812	-75.73745727539062	-240.7647705078125	884.9248657226562	-41.30889892578125	-469.6145935058594	1754.073852539062	-300.5592651367188	-313.6297302246094	1821.064697265625	-440.0967102050781	-310.3309020996094	1833.804931640625	-311.7894897460938	-480.1463623046875	1745.270629882812	-435.7875671386719	-378.9265747070312	1027.535888671875	-533.2713012695312	-384.4718627929688	1001.48046875	-165.7399444580078	-298.7056884765625	1077.577026367188	-207.4963836669922	-285.1885986328125	1090.39599609375	-472.9337768554688	-216.2653045654297	545.1495361328125	-489.2657775878906	-282.5143127441406	677.6104125976562	-524.7650756835938	-197.7843170166016	29.23246383666992	-476.3381042480469	-247.1217803955078	281.18994140625	-513.5926513671875	28.50298690795898	57.78205108642578	-422.8310546875	-48.82841110229492	53.38148880004883	-386.4900512695312	-75.85194396972656	36.99600982666016	-499.1804809570312	-265.1607971191406	31.40499496459961	-413.3373718261719	-431.6856384277344	507.8852844238281	-220.1877136230469	-377.1473999023438	787.1416625976562	-184.5660858154297	-763.0051879882812	89.05044555664062	-241.4774475097656	-517.279296875	392.9918518066406	-209.9024200439453	-544.5574951171875	37.40218734741211	-298.4555053710938	-604.8713989257812	40.21300888061523	-337.5297241210938	-638.9208374023438	42.768310546875	-221.6745147705078	-813.3609619140625	121.6780471801758	-288.9542236328125	
355	3.54	-487.4688415527344	1100.818969726562	-293.8816223144531	-478.6784057617188	1107.828491210938	-428.651611328125	-492.7540893554688	1140.667846679688	-361.7839050292969	-276.7003784179688	1342.346069335938	-349.4156799316406	-521.8058471679688	1289.199584960938	-349.3693237304688	-493.3370971679688	1581.812622070312	-372.80810546875	-313.0903625488281	1476.703002929688	-360.7872314453125	-547.5867919921875	1401.045654296875	-278.023193359375	-501.5044250488281	1558.460571289062	-472.1826782226562	-417.283447265625	1542.339477539062	-543.2011108398438	-453.8187866210938	1410.109497070312	-604.9784545898438	-481.6916198730469	1194.217895507812	-615.495361328125	-536.3065795898438	1194.744995117188	-547.4706420898438	-438.9144897460938	918.8466186523438	-579.7279663085938	-527.8779907226562	915.3560791015625	-592.4595336914062	-491.1868896484375	1077.547119140625	-618.0205688476562	-477.916015625	730.006591796875	-543.5581665039062	-520.5257568359375	834.861083984375	-592.731689453125	-451.2948913574219	827.6581420898438	-584.8406372070312	-439.2867736816406	1571.581665039062	-190.9794311523438	-450.7991943359375	1499.051147460938	-124.7186737060547	-426.6156921386719	1206.863525390625	-81.30158233642578	-436.478759765625	1197.0771484375	-177.0450134277344	-233.7471923828125	1002.002746582031	-87.81574249267578	-300.1390075683594	969.7623291015625	-51.73857498168945	-387.5719299316406	1140.103393554688	-62.35028076171875	-162.9409027099609	818.80517578125	-93.20807647705078	-178.6465454101562	904.8173217773438	-76.74203491210938	-240.3679351806641	882.845458984375	-42.88966369628906	-460.614501953125	1755.3564453125	-302.1581115722656	-304.5205078125	1822.490234375	-441.4352416992188	-301.5509338378906	1835.136352539062	-313.0635681152344	-470.9282836914062	1746.55029296875	-437.4071655273438	-368.78955078125	1029.609130859375	-534.9375	-373.5947265625	1001.884155273438	-167.7990264892578	-288.3597717285156	1078.603637695312	-209.5259246826172	-275.0199890136719	1092.068115234375	-474.8343811035156	-209.1693267822266	545.6519775390625	-489.8164367675781	-274.0488586425781	678.75537109375	-525.9071655273438	-197.2008209228516	29.29583168029785	-476.5681762695312	-242.1216430664062	281.7139587402344	-514.8485717773438	29.44457244873047	54.44096755981445	-421.4574584960938	-48.37355041503906	51.33898162841797	-385.5877075195312	-74.88861846923828	36.43010711669922	-498.8053588867188	-264.8496704101562	31.94964599609375	-413.9640502929688	-415.4967041015625	507.394775390625	-220.7392425537109	-364.2698059082031	787.4014282226562	-186.423095703125	-758.1721801757812	96.57669830322266	-240.0568237304688	-503.4906311035156	394.4256286621094	-209.8438415527344	-544.4392700195312	37.29771041870117	-298.2467956542969	-603.9288330078125	41.25762557983398	-337.7585754394531	-637.0869140625	43.59869384765625	-221.783203125	-806.5596923828125	131.8667602539062	-287.3585510253906	
